<svg fill="none" height="36" viewBox="0 0 107 36" width="107" xmlns="http://www.w3.org/2000/svg">
  <g fill="#000">
    <path d="m.860962 35v-34.559988h7.391998v34.559988zm3.455998 0v-5.664h20.54404v5.664z" />
    <path
      d="m43.9365 35c-.192-.704-.336-1.456-.432-2.256-.064-.8-.096-1.728-.096-2.784h-.192v-11.568c0-.992-.336-1.76-1.008-2.304-.64-.576-1.6-.864-2.88-.864-1.216 0-2.192.208-2.928.624-.704.416-1.168 1.024-1.392 1.824h-6.864c.32-2.208 1.456-4.032 3.408-5.472s4.624-2.16 8.016-2.16c3.52 0 6.208.784 8.064 2.352s2.784 3.824 2.784 6.768v10.8c0 .8.048 1.616.144 2.448.128.8.32 1.664.576 2.592zm-8.544.48c-2.432 0-4.368-.608-5.808-1.824-1.44-1.248-2.16-2.896-2.16-4.944 0-2.272.848-4.096 2.544-5.472 1.728-1.408 4.128-2.32 7.2-2.736l7.152-1.008v4.176l-5.952.912c-1.28.192-2.224.544-2.832 1.056s-.912 1.216-.912 2.112c0 .8.288 1.408.864 1.824s1.344.624 2.304.624c1.504 0 2.784-.4 3.84-1.2 1.056-.832 1.584-1.792 1.584-2.88l.672 3.84c-.704 1.824-1.776 3.2-3.216 4.128s-3.2 1.392-5.28 1.392zm-4.464-30.09599v-5.183998h17.616v5.183998z" />
    <path
      d="m55.9503 35v-34.559988h7.2v34.559988zm15.696 0-10.176-12.72 9.936-11.76h8.304l-11.664 12.864.336-2.256 11.808 13.872z" />
    <path
      d="m93.0663 35.48c-2.688 0-5.056-.528-7.104-1.584-2.016-1.088-3.6-2.592-4.752-4.512-1.12-1.952-1.68-4.192-1.68-6.72s.56-4.736 1.68-6.624c1.152-1.888 2.736-3.36 4.752-4.416 2.048-1.056 4.416-1.584 7.104-1.584 2.72 0 5.088.528 7.1037 1.584 2.048 1.056 3.632 2.528 4.752 4.416s1.68 4.096 1.68 6.624-.576 4.768-1.728 6.72c-1.12 1.92-2.704 3.424-4.752 4.512-2.0157 1.056-4.3677 1.584-7.0557 1.584zm0-5.664c1.12 0 2.128-.288 3.024-.864.928-.576 1.664-1.392 2.208-2.448.544-1.088.816-2.384.816-3.888 0-2.208-.592-3.904-1.776-5.088-1.152-1.216-2.576-1.824-4.272-1.824s-3.136.608-4.32 1.824c-1.152 1.216-1.728 2.912-1.728 5.088 0 1.504.272 2.8.816 3.888.544 1.056 1.264 1.872 2.16 2.448.928.576 1.952.864 3.072.864z" />
  </g>
</svg>
